<svg width="23" height="28" viewBox="0 0 23 28" fill="none" xmlns="http://www.w3.org/2000/svg">
<path d="M22.1312 24.0243C22.1312 24.5996 21.6879 25.066 21.1409 25.066H20.1507V26.1076C20.1507 26.6829 19.7073 27.1493 19.1604 27.1493C18.6135 27.1493 18.1701 26.6829 18.1701 26.1076V25.066H17.1798C16.6329 25.066 16.1896 24.5996 16.1896 24.0243C16.1896 23.449 16.6329 22.9826 17.1798 22.9826H18.1701V21.941C18.1701 21.3657 18.6135 20.8993 19.1604 20.8993C19.7073 20.8993 20.1507 21.3657 20.1507 21.941V22.9826H21.1409C21.6879 22.9826 22.1312 23.449 22.1312 24.0243ZM22.1312 7.7743V17.7743C22.1312 18.3496 21.6879 18.816 21.1409 18.816C20.594 18.816 20.1507 18.3496 20.1507 17.7743V8.81597H18.1701V11.941C18.1701 12.5163 17.7268 12.9826 17.1798 12.9826C16.6329 12.9826 16.1896 12.5163 16.1896 11.941V8.81597H6.68288V11.941C6.68288 12.5163 6.23953 12.9826 5.6926 12.9826C5.14567 12.9826 4.70232 12.5163 4.70232 11.941V8.81597H2.72177V25.066H13.2187C13.7656 25.066 14.209 25.5323 14.209 26.1076C14.209 26.6829 13.7656 27.1493 13.2187 27.1493H1.73149C1.18456 27.1493 0.741211 26.6829 0.741211 26.1076V7.7743C0.741211 7.19899 1.18456 6.73264 1.73149 6.73264H4.74916C5.14255 3.21821 7.99119 0.482635 11.4362 0.482635C14.8812 0.482635 17.7299 3.21821 18.1233 6.73264H21.1409C21.6879 6.73264 22.1312 7.19899 22.1312 7.7743ZM16.1232 6.73264C15.7449 4.37092 13.7873 2.56597 11.4362 2.56597C9.08515 2.56597 7.12757 4.37092 6.74928 6.73264H16.1232Z" fill="black"/>
</svg>
