<?xml version="1.0" standalone="no"?>
<!DOCTYPE svg PUBLIC "-//W3C//DTD SVG 20010904//EN"
 "http://www.w3.org/TR/2001/REC-SVG-20010904/DTD/svg10.dtd">
<svg version="1.0" xmlns="http://www.w3.org/2000/svg"
 width="17.000000pt" height="25.000000pt" viewBox="0 0 17.000000 25.000000"
 preserveAspectRatio="xMidYMid meet">
<g transform="translate(0.000000,25.000000) scale(0.002623,-0.002551)"
fill="#000000" stroke="none">
<path d="M500 9784 c-112 -24 -222 -86 -312 -175 -44 -44 -77 -79 -74 -79 3 0
-7 -21 -23 -47 -16 -27 -40 -77 -53 -113 l-23 -65 0 -3575 0 -3575 26 -72 c38
-103 140 -248 205 -290 67 -44 154 -89 207 -107 61 -21 73 -21 1028 -24 l965
-3 52 168 c29 93 52 172 52 176 0 4 -441 7 -980 7 -943 0 -982 1 -1030 19 -61
23 -132 91 -160 152 -19 44 -20 68 -20 3543 0 2642 3 3508 12 3538 6 21 22 50
35 64 13 14 23 29 23 34 0 13 91 69 131 80 24 7 958 9 2700 8 l2664 -3 40 -22
c54 -30 110 -89 134 -143 21 -45 21 -47 21 -3550 0 -3497 0 -3505 -21 -3550
-50 -111 -151 -170 -289 -170 -44 0 -80 -3 -80 -7 0 -5 28 -84 62 -176 l63
-168 58 6 c245 26 449 197 533 445 18 53 19 162 19 3620 l0 3565 -23 65 c-12
36 -37 91 -55 123 -33 59 -126 175 -140 176 -5 1 -23 12 -40 25 -51 39 -157
85 -233 101 -101 21 -5374 21 -5474 -1z"/>
<path d="M1350 8285 l0 -275 1890 0 1890 0 0 275 0 275 -1890 0 -1890 0 0
-275z"/>
<path d="M1350 7025 l0 -275 1890 0 1890 0 0 275 0 275 -1890 0 -1890 0 0
-275z"/>
<path d="M4055 5280 c-78 -11 -170 -42 -234 -80 -28 -16 -51 -28 -51 -26 0 16
-139 -131 -172 -180 l-40 -62 -39 13 c-21 8 -75 19 -119 25 -190 26 -392 -40
-541 -177 -38 -35 -67 -63 -64 -63 4 0 -5 -15 -18 -32 -36 -48 -62 -104 -88
-188 -27 -88 -32 -251 -10 -337 12 -48 11 -56 -6 -84 -10 -18 -26 -37 -36 -43
-18 -11 -117 -106 -117 -112 0 -2 -18 -31 -40 -65 -83 -128 -118 -319 -86
-469 27 -126 104 -266 187 -340 16 -14 39 -55 54 -95 23 -60 27 -88 29 -200 2
-112 6 -142 30 -212 16 -45 45 -107 66 -139 48 -74 137 -162 199 -199 28 -17
51 -35 51 -41 0 -5 -92 -304 -205 -664 -113 -360 -205 -662 -205 -672 0 -25
35 -41 60 -28 11 6 20 7 20 3 0 -4 6 0 13 9 16 20 267 190 267 181 0 -4 6 0
13 9 13 16 205 148 216 148 3 0 58 -152 121 -338 104 -304 117 -337 138 -340
13 -2 29 1 36 7 7 6 106 310 221 676 205 653 210 666 232 660 116 -29 260 -23
373 15 34 12 64 20 65 18 2 -2 148 -383 325 -847 176 -465 335 -879 351 -922
32 -83 57 -105 86 -76 8 8 62 169 119 358 57 188 106 344 108 346 2 2 116 -62
255 -142 266 -155 294 -166 299 -110 1 20 -113 335 -332 915 l-333 885 53 58
c64 69 114 157 145 252 17 54 22 98 24 195 2 115 5 134 39 231 20 59 36 112
36 119 0 12 54 84 93 122 9 10 18 21 19 26 1 4 16 39 34 77 44 98 58 165 58
275 0 117 -14 180 -66 290 -32 67 -57 100 -117 160 -42 41 -96 89 -121 106
-54 37 -90 102 -90 165 0 64 -26 161 -59 229 -105 212 -281 338 -516 370 -54
7 -73 14 -86 32 -10 12 -16 24 -14 26 1 2 -26 34 -62 72 -114 121 -246 190
-404 210 -46 5 -88 9 -94 9 -5 -1 -37 -5 -70 -9z m224 -585 c45 -9 112 -25
149 -36 84 -26 261 -111 295 -143 14 -13 28 -22 30 -20 2 2 22 -13 45 -34 23
-22 43 -37 45 -35 2 2 36 -30 75 -71 164 -173 265 -363 319 -598 23 -101 23
-365 0 -466 -24 -105 -61 -211 -103 -295 -295 -586 -993 -825 -1580 -543 -63
30 -114 60 -114 65 0 6 -4 10 -9 9 -16 -5 -126 82 -210 167 -47 47 -82 85 -79
85 3 0 -6 13 -22 30 -73 78 -164 267 -207 427 -23 87 -26 118 -27 273 -1 204
13 287 75 445 39 102 132 265 150 265 6 0 8 4 5 9 -7 11 193 223 204 216 4 -3
10 1 13 9 7 18 125 95 212 138 87 44 214 86 308 103 102 19 327 18 426 0z"/>
</g>
</svg>
