<svg width="28" height="28" viewBox="0 0 28 28" fill="none" xmlns="http://www.w3.org/2000/svg">
<g clip-path="url(#clip0)">
<path d="M24.8223 3.28906H3.62305C2.02377 3.28906 0.722656 4.59018 0.722656 6.18945V20.9551C0.722656 22.5544 2.02377 23.8555 3.62305 23.8555H24.8223C26.4215 23.8555 27.7227 22.5544 27.7227 20.9551V6.18945C27.7227 4.59018 26.4215 3.28906 24.8223 3.28906ZM26.1406 6.18945V11.1992H16.5957V10.9593C16.5957 9.38953 14.944 8.37223 13.543 9.07265L12.3925 9.64788C12.0183 9.30806 11.5626 9.05646 11.0586 8.92626V4.87109H24.8223C25.5492 4.87109 26.1406 5.46251 26.1406 6.18945ZM10.2676 10.4082C11.1399 10.4082 11.8496 11.1179 11.8496 11.9902C11.8496 12.8626 11.1399 13.5723 10.2676 13.5723C9.39525 13.5723 8.68555 12.8626 8.68555 11.9902C8.68555 11.1179 9.39525 10.4082 10.2676 10.4082ZM7.26979 13.0003L6.28466 13.4928C5.93392 13.6682 5.52148 13.4131 5.52148 13.0211V10.9593C5.52148 10.567 5.93413 10.3124 6.28466 10.4876L7.26979 10.9802C7.0482 11.6362 7.04788 12.3434 7.26979 13.0003ZM8.94284 14.8625C9.11328 14.9415 9.29146 15.0063 9.47656 15.0542V16.2587L8.2132 17.9191L7.11448 17.2879L8.94284 14.8625ZM11.0586 15.0542C11.2437 15.0063 11.4219 14.9415 11.5923 14.8625L13.4207 17.2879L12.322 17.9191L11.0586 16.2587V15.0542ZM13.2654 10.9802L14.2505 10.4877C14.6012 10.3123 15.0137 10.5674 15.0137 10.9593V13.0212C15.0137 13.4133 14.6011 13.6681 14.2505 13.4928L13.2654 13.0003C13.487 12.3443 13.4873 11.6371 13.2654 10.9802ZM3.62305 4.87109H9.47656V8.92631C8.97258 9.05652 8.5169 9.30811 8.14265 9.64788L6.99214 9.07265C5.5884 8.37081 3.93945 9.39259 3.93945 10.9593V11.1992H2.30469V6.18945C2.30469 5.46251 2.8961 4.87109 3.62305 4.87109ZM2.30469 20.9551V12.7812H3.93945V13.0211C3.93945 14.5445 5.50408 15.5624 6.89263 14.954L5.31171 17.0512C5.02547 17.4309 5.13695 17.9763 5.54933 18.2132L8.02784 19.637C8.37267 19.8351 8.81074 19.7464 9.05136 19.4301L9.47656 18.8714V22.2734H3.62305C2.8961 22.2734 2.30469 21.682 2.30469 20.9551ZM24.8223 22.2734H11.0586V18.8714L11.4837 19.4302C11.7246 19.7467 12.1629 19.8349 12.5073 19.6371L14.9858 18.2133C15.3982 17.9764 15.5097 17.431 15.2234 17.0512L13.6425 14.9541C15.0227 15.5587 16.5957 14.5544 16.5957 13.0211V12.7812H26.1406V20.9551C26.1406 21.682 25.5492 22.2734 24.8223 22.2734Z" fill="#222222"/>
</g>
<defs>
<clipPath id="clip0">
<rect width="27" height="27" fill="white" transform="translate(0.722656 0.0742188)"/>
</clipPath>
</defs>
</svg>
