<svg width="29" height="29" viewBox="0 0 29 29" fill="none" xmlns="http://www.w3.org/2000/svg">
<path d="M7.22274 2.96484H17.7227C18.3416 2.96484 18.9351 3.21068 19.3727 3.64826C19.8102 4.08585 20.0561 4.67934 20.0561 5.29818V6.46484C20.0561 6.77426 19.9332 7.07101 19.7144 7.2898C19.4956 7.50859 19.1988 7.63151 18.8894 7.63151C18.58 7.63151 18.2832 7.50859 18.0644 7.2898C17.8457 7.07101 17.7227 6.77426 17.7227 6.46484V5.29818H7.22274V23.9648H17.7227V22.7982C17.7227 22.4888 17.8457 22.192 18.0644 21.9732C18.2832 21.7544 18.58 21.6315 18.8894 21.6315C19.1988 21.6315 19.4956 21.7544 19.7144 21.9732C19.9332 22.192 20.0561 22.4888 20.0561 22.7982V23.9648C20.0561 24.5837 19.8102 25.1772 19.3727 25.6148C18.9351 26.0523 18.3416 26.2982 17.7227 26.2982H7.22274C6.6039 26.2982 6.01041 26.0523 5.57282 25.6148C5.13524 25.1772 4.8894 24.5837 4.8894 23.9648V5.29818C4.8894 4.67934 5.13524 4.08585 5.57282 3.64826C6.01041 3.21068 6.6039 2.96484 7.22274 2.96484Z" fill="#222222"/>
<path d="M19.8168 19.6428C20.2718 20.0978 21.0068 20.0978 21.4618 19.6428L25.6478 15.4568C25.8665 15.238 25.9894 14.9413 25.9894 14.632C25.9894 14.3226 25.8665 14.0259 25.6478 13.8071L21.4618 9.62115C21.2401 9.42071 20.9497 9.31314 20.6509 9.32068C20.3521 9.32823 20.0676 9.4503 19.8562 9.66168C19.6448 9.87305 19.5227 10.1576 19.5152 10.4564C19.5076 10.7552 19.6152 11.0455 19.8157 11.2673L22.0043 13.4653H11.8893C11.5799 13.4653 11.2832 13.5882 11.0644 13.807C10.8456 14.0258 10.7227 14.3226 10.7227 14.632C10.7227 14.9414 10.8456 15.2381 11.0644 15.4569C11.2832 15.6757 11.5799 15.7986 11.8893 15.7986H22.0043L19.8157 17.9966C19.5979 18.2153 19.4757 18.5114 19.4759 18.82C19.4761 19.1286 19.5987 19.4245 19.8168 19.6428Z" fill="#222222"/>
</svg>
