<svg width="138" height="23" viewBox="0 0 138 23" fill="none" xmlns="http://www.w3.org/2000/svg">
<path d="M8.82715 12.9326H3.33398L3.30469 9.56348H7.75781C8.55859 9.56348 9.19824 9.47559 9.67676 9.2998C10.1553 9.11426 10.502 8.8457 10.7168 8.49414C10.9414 8.14258 11.0537 7.70312 11.0537 7.17578C11.0537 6.57031 10.9414 6.08203 10.7168 5.71094C10.4922 5.33984 10.1357 5.07129 9.64746 4.90527C9.16895 4.72949 8.54883 4.6416 7.78711 4.6416H5.26758V22H0.125977V0.671875H7.78711C9.10547 0.671875 10.2822 0.793945 11.3174 1.03809C12.3525 1.27246 13.2314 1.63379 13.9541 2.12207C14.6865 2.61035 15.2432 3.22559 15.624 3.96777C16.0049 4.7002 16.1953 5.56445 16.1953 6.56055C16.1953 7.42969 16.0098 8.24512 15.6387 9.00684C15.2676 9.76855 14.6475 10.3887 13.7783 10.8672C12.9189 11.3359 11.7422 11.5801 10.248 11.5996L8.82715 12.9326ZM8.62207 22H2.08887L3.84668 18.0449H8.62207C9.3252 18.0449 9.88672 17.9375 10.3066 17.7227C10.7363 17.498 11.0439 17.2051 11.2295 16.8438C11.4248 16.4727 11.5225 16.0625 11.5225 15.6133C11.5225 15.0664 11.4297 14.5928 11.2441 14.1924C11.0684 13.792 10.7852 13.4844 10.3945 13.2695C10.0039 13.0449 9.48145 12.9326 8.82715 12.9326H4.50586L4.53516 9.56348H9.70605L10.9072 10.9111C12.333 10.8525 13.4609 11.0527 14.291 11.5117C15.1309 11.9707 15.7314 12.5762 16.0928 13.3281C16.4541 14.0801 16.6348 14.8662 16.6348 15.6865C16.6348 17.083 16.332 18.25 15.7266 19.1875C15.1309 20.125 14.2373 20.8281 13.0459 21.2969C11.8545 21.7656 10.3799 22 8.62207 22ZM28.5293 5.1543L23.3291 22H17.8066L25.6436 0.671875H29.1445L28.5293 5.1543ZM32.8359 22L27.6211 5.1543L26.9473 0.671875H30.4922L38.373 22H32.8359ZM32.6309 14.0459V18.0156H21.6885V14.0459H32.6309ZM39.9404 0.671875H48.334C49.9746 0.671875 51.4004 0.916016 52.6113 1.4043C53.8223 1.89258 54.7549 2.61523 55.4092 3.57227C56.0732 4.5293 56.4053 5.71094 56.4053 7.11719C56.4053 8.33789 56.2148 9.3584 55.834 10.1787C55.4531 10.999 54.9209 11.6777 54.2373 12.2148C53.5635 12.7422 52.7773 13.1768 51.8789 13.5186L50.1943 14.4707H43.1484L43.1191 10.501H48.334C48.9883 10.501 49.5303 10.3838 49.96 10.1494C50.3896 9.91504 50.7119 9.58301 50.9268 9.15332C51.1514 8.71387 51.2637 8.19141 51.2637 7.58594C51.2637 6.9707 51.1514 6.44336 50.9268 6.00391C50.7021 5.56445 50.3701 5.22754 49.9307 4.99316C49.501 4.75879 48.9688 4.6416 48.334 4.6416H45.082V22H39.9404V0.671875ZM51.6152 22L46.8984 12.5664L52.3477 12.5371L57.123 21.7803V22H51.6152ZM77.5576 10.9111V11.7754C77.5576 13.4062 77.3281 14.8711 76.8691 16.1699C76.4199 17.459 75.7803 18.5625 74.9502 19.4805C74.1201 20.3887 73.1387 21.0869 72.0059 21.5752C70.873 22.0537 69.623 22.293 68.2559 22.293C66.8789 22.293 65.6191 22.0537 64.4766 21.5752C63.3438 21.0869 62.3574 20.3887 61.5176 19.4805C60.6875 18.5625 60.043 17.459 59.584 16.1699C59.1348 14.8711 58.9102 13.4062 58.9102 11.7754V10.9111C58.9102 9.28027 59.1348 7.81543 59.584 6.5166C60.043 5.21777 60.6826 4.11426 61.5029 3.20605C62.333 2.28809 63.3145 1.58984 64.4473 1.11133C65.5898 0.623047 66.8496 0.378906 68.2266 0.378906C69.5938 0.378906 70.8438 0.623047 71.9766 1.11133C73.1191 1.58984 74.1055 2.28809 74.9355 3.20605C75.7656 4.11426 76.4102 5.21777 76.8691 6.5166C77.3281 7.81543 77.5576 9.28027 77.5576 10.9111ZM72.3428 11.7754V10.8818C72.3428 9.82715 72.25 8.89941 72.0645 8.09863C71.8887 7.28809 71.625 6.60937 71.2734 6.0625C70.9219 5.51563 70.4873 5.10547 69.9697 4.83203C69.4619 4.54883 68.8809 4.40723 68.2266 4.40723C67.543 4.40723 66.9473 4.54883 66.4395 4.83203C65.9316 5.10547 65.5068 5.51563 65.165 6.0625C64.8232 6.60937 64.5645 7.28809 64.3887 8.09863C64.2227 8.89941 64.1396 9.82715 64.1396 10.8818V11.7754C64.1396 12.8203 64.2227 13.748 64.3887 14.5586C64.5645 15.3594 64.8232 16.0381 65.165 16.5947C65.5166 17.1514 65.9463 17.5713 66.4541 17.8545C66.9717 18.1377 67.5723 18.2793 68.2559 18.2793C68.9102 18.2793 69.4912 18.1377 69.999 17.8545C70.5068 17.5713 70.9316 17.1514 71.2734 16.5947C71.625 16.0381 71.8887 15.3594 72.0645 14.5586C72.25 13.748 72.3428 12.8203 72.3428 11.7754ZM92.3525 14.7783H97.4795C97.4111 16.2627 97.0107 17.5713 96.2783 18.7041C95.5459 19.8369 94.5303 20.7207 93.2314 21.3555C91.9424 21.9805 90.4189 22.293 88.6611 22.293C87.2354 22.293 85.9609 22.0537 84.8379 21.5752C83.7246 21.0967 82.7773 20.4082 81.9961 19.5098C81.2246 18.6113 80.6338 17.5225 80.2236 16.2432C79.8232 14.9639 79.623 13.5234 79.623 11.9219V10.7646C79.623 9.16309 79.833 7.72266 80.2529 6.44336C80.6826 5.1543 81.2881 4.06055 82.0693 3.16211C82.8604 2.25391 83.8076 1.56055 84.9111 1.08203C86.0146 0.603516 87.2402 0.364258 88.5879 0.364258C90.4434 0.364258 92.0107 0.696289 93.29 1.36035C94.5693 2.02441 95.5605 2.9375 96.2637 4.09961C96.9668 5.25195 97.3818 6.56543 97.5088 8.04004H92.3818C92.3623 7.23926 92.2256 6.57031 91.9717 6.0332C91.7178 5.48633 91.3174 5.07617 90.7705 4.80273C90.2236 4.5293 89.4961 4.39258 88.5879 4.39258C87.9531 4.39258 87.4014 4.50977 86.9326 4.74414C86.4639 4.97852 86.0732 5.34961 85.7607 5.85742C85.4482 6.36523 85.2139 7.02441 85.0576 7.83496C84.9111 8.63574 84.8379 9.60254 84.8379 10.7354V11.9219C84.8379 13.0547 84.9062 14.0215 85.043 14.8223C85.1797 15.623 85.3994 16.2773 85.7021 16.7852C86.0049 17.293 86.3955 17.6689 86.874 17.9131C87.3623 18.1475 87.958 18.2646 88.6611 18.2646C89.4424 18.2646 90.1016 18.1426 90.6387 17.8984C91.1758 17.6445 91.5908 17.2637 91.8838 16.7559C92.1768 16.2383 92.333 15.5791 92.3525 14.7783ZM112.04 14.7783H117.167C117.099 16.2627 116.698 17.5713 115.966 18.7041C115.233 19.8369 114.218 20.7207 112.919 21.3555C111.63 21.9805 110.106 22.293 108.349 22.293C106.923 22.293 105.648 22.0537 104.525 21.5752C103.412 21.0967 102.465 20.4082 101.684 19.5098C100.912 18.6113 100.321 17.5225 99.9111 16.2432C99.5107 14.9639 99.3105 13.5234 99.3105 11.9219V10.7646C99.3105 9.16309 99.5205 7.72266 99.9404 6.44336C100.37 5.1543 100.976 4.06055 101.757 3.16211C102.548 2.25391 103.495 1.56055 104.599 1.08203C105.702 0.603516 106.928 0.364258 108.275 0.364258C110.131 0.364258 111.698 0.696289 112.978 1.36035C114.257 2.02441 115.248 2.9375 115.951 4.09961C116.654 5.25195 117.069 6.56543 117.196 8.04004H112.069C112.05 7.23926 111.913 6.57031 111.659 6.0332C111.405 5.48633 111.005 5.07617 110.458 4.80273C109.911 4.5293 109.184 4.39258 108.275 4.39258C107.641 4.39258 107.089 4.50977 106.62 4.74414C106.151 4.97852 105.761 5.34961 105.448 5.85742C105.136 6.36523 104.901 7.02441 104.745 7.83496C104.599 8.63574 104.525 9.60254 104.525 10.7354V11.9219C104.525 13.0547 104.594 14.0215 104.73 14.8223C104.867 15.623 105.087 16.2773 105.39 16.7852C105.692 17.293 106.083 17.6689 106.562 17.9131C107.05 18.1475 107.646 18.2646 108.349 18.2646C109.13 18.2646 109.789 18.1426 110.326 17.8984C110.863 17.6445 111.278 17.2637 111.571 16.7559C111.864 16.2383 112.021 15.5791 112.04 14.7783ZM137.646 10.9111V11.7754C137.646 13.4062 137.416 14.8711 136.957 16.1699C136.508 17.459 135.868 18.5625 135.038 19.4805C134.208 20.3887 133.227 21.0869 132.094 21.5752C130.961 22.0537 129.711 22.293 128.344 22.293C126.967 22.293 125.707 22.0537 124.564 21.5752C123.432 21.0869 122.445 20.3887 121.605 19.4805C120.775 18.5625 120.131 17.459 119.672 16.1699C119.223 14.8711 118.998 13.4062 118.998 11.7754V10.9111C118.998 9.28027 119.223 7.81543 119.672 6.5166C120.131 5.21777 120.771 4.11426 121.591 3.20605C122.421 2.28809 123.402 1.58984 124.535 1.11133C125.678 0.623047 126.938 0.378906 128.314 0.378906C129.682 0.378906 130.932 0.623047 132.064 1.11133C133.207 1.58984 134.193 2.28809 135.023 3.20605C135.854 4.11426 136.498 5.21777 136.957 6.5166C137.416 7.81543 137.646 9.28027 137.646 10.9111ZM132.431 11.7754V10.8818C132.431 9.82715 132.338 8.89941 132.152 8.09863C131.977 7.28809 131.713 6.60937 131.361 6.0625C131.01 5.51563 130.575 5.10547 130.058 4.83203C129.55 4.54883 128.969 4.40723 128.314 4.40723C127.631 4.40723 127.035 4.54883 126.527 4.83203C126.02 5.10547 125.595 5.51563 125.253 6.0625C124.911 6.60937 124.652 7.28809 124.477 8.09863C124.311 8.89941 124.228 9.82715 124.228 10.8818V11.7754C124.228 12.8203 124.311 13.748 124.477 14.5586C124.652 15.3594 124.911 16.0381 125.253 16.5947C125.604 17.1514 126.034 17.5713 126.542 17.8545C127.06 18.1377 127.66 18.2793 128.344 18.2793C128.998 18.2793 129.579 18.1377 130.087 17.8545C130.595 17.5713 131.02 17.1514 131.361 16.5947C131.713 16.0381 131.977 15.3594 132.152 14.5586C132.338 13.748 132.431 12.8203 132.431 11.7754Z" fill="black"/>
</svg>
