<svg width="29" height="29" viewBox="0 0 29 29" fill="none" xmlns="http://www.w3.org/2000/svg">
<g clip-path="url(#clip0)">
<path d="M21.8748 17.7734H22.6951V18.5938H21.8748V17.7734Z" fill="black"/>
<path d="M5.46851 17.7734H6.28882V18.5938H5.46851V17.7734Z" fill="black"/>
<path d="M9.35059 18.1836C9.35059 20.792 11.4727 22.9141 14.0811 22.9141C16.6894 22.9141 18.8115 20.792 18.8115 18.1836C18.8115 15.5752 16.6894 13.4531 14.0811 13.4531C11.4727 13.4531 9.35059 15.5752 9.35059 18.1836ZM17.9912 18.1836C17.9912 20.3397 16.2371 22.0938 14.0811 22.0938C11.925 22.0938 10.1709 20.3397 10.1709 18.1836C10.1709 16.0275 11.925 14.2734 14.0811 14.2734C16.2371 14.2734 17.9912 16.0275 17.9912 18.1836Z" fill="black"/>
<path d="M0.0810547 10.0625V26.3047H4.64691V25.4844H0.901367V10.8828H27.2607V25.4844H5.46723V26.3047H28.0811V10.0625H0.0810547Z" fill="black"/>
<path d="M3.69459 24.6641H24.4675L24.4244 24.2148C24.3339 23.27 25.0805 22.4492 26.0303 22.4492H26.4404V13.918H26.0303C25.1407 13.918 24.417 13.1942 24.417 12.3047C24.417 12.2087 24.4203 12.1958 24.4675 11.7031H20.2181V12.5234H23.6064C23.7052 13.6266 24.5432 14.5202 25.6201 14.7037V21.6635C24.5432 21.847 23.7051 22.7406 23.6064 23.8438H4.5557C4.45698 22.7406 3.61895 21.847 2.54199 21.6635V14.7037C3.61895 14.5202 4.45698 13.6266 4.5557 12.5234H19.3978V11.7031H3.69459L3.73768 12.1524C3.82819 13.0972 3.08159 13.918 2.13184 13.918H1.72168V22.4492H2.13184C3.02144 22.4492 3.74512 23.173 3.74512 24.0625C3.74512 24.1585 3.74184 24.1714 3.69459 24.6641Z" fill="black"/>
<path d="M20.3924 6.04838L20.1981 5.64062L15.4683 8.48001L15.8905 9.18329L19.8819 6.78726C20.5381 7.68983 21.7196 8.01686 22.7306 7.62108L23.5839 9.0428L24.2872 8.62061L23.0294 6.52492L22.6777 6.73602C21.8555 7.22957 20.7967 6.89833 20.3924 6.04838Z" fill="black"/>
<path d="M26.2008 8.62091L22.452 2.375L12.28 8.48031L12.7022 9.18365L22.1708 3.50052L25.4975 9.04305L26.2008 8.62091Z" fill="black"/>
</g>
<defs>
<clipPath id="clip0">
<rect width="28" height="28" fill="white" transform="translate(0.0810547 0.339844)"/>
</clipPath>
</defs>
</svg>
