<svg width="23" height="24" viewBox="0 0 23 24" fill="none" xmlns="http://www.w3.org/2000/svg">
<g clip-path="url(#clip0)">
<path d="M20.1174 18.3527C19.1311 19.2645 17.7016 19.9184 15.8289 20.3145C13.9563 20.7106 12.0264 20.8264 10.0394 20.662L6.26556 23.6215V19.9222C5.0219 19.5186 4.04984 18.9954 3.34938 18.3527C2.52027 17.5904 1.877 16.4956 1.41956 15.0681C0.962118 13.6407 0.733398 12.1834 0.733398 10.6962C0.733398 9.20895 0.962118 7.75162 1.41956 6.32419C1.877 4.89676 2.52385 3.79816 3.3601 3.0284C4.19636 2.25863 5.39357 1.66823 6.95172 1.25719C8.50988 0.846145 10.1038 0.640625 11.7334 0.640625C13.363 0.640625 14.9569 0.846145 16.5151 1.25719C18.0732 1.66823 19.2704 2.25863 20.1067 3.0284C20.9429 3.79816 21.5898 4.89676 22.0472 6.32419C22.5047 7.75162 22.7334 9.20895 22.7334 10.6962C22.7334 12.1834 22.5047 13.6407 22.0472 15.0681C21.5898 16.4956 20.9465 17.5904 20.1174 18.3527ZM14.4352 12.8597L15.8289 13.1064C15.7146 11.3127 15.0534 9.78067 13.8455 8.51018C12.6376 7.23969 11.1759 6.54466 9.46049 6.42508L9.69636 7.88241C10.9257 8.04682 11.9836 8.59239 12.8699 9.5191C13.7561 10.4458 14.2779 11.5594 14.4352 12.8597ZM9.93223 9.38457L10.1895 10.9988C10.7613 11.2978 11.183 11.7387 11.4546 12.3216L12.9985 12.5907C12.827 11.7985 12.4624 11.1147 11.9049 10.5392C11.3474 9.96377 10.6899 9.57888 9.93223 9.38457ZM7.63788 10.7074V9.27247C7.63788 9.01837 7.54854 8.76428 7.36985 8.51018C7.19116 8.25608 7.00175 8.07298 6.80162 7.96088C6.60149 7.84878 6.4514 7.83757 6.35133 7.92725L5.36498 8.98101C4.80747 9.56394 4.72528 10.472 5.11839 11.7051C5.5115 12.9382 6.26199 14.134 7.36985 15.2923C8.47771 16.4507 9.62131 17.2354 10.8006 17.6465C11.98 18.0575 12.8413 17.9716 13.3845 17.3887L14.3923 16.3349C14.4923 16.2452 14.4888 16.092 14.3815 15.8753C14.2743 15.6585 14.0992 15.4605 13.8562 15.2811C13.6132 15.1018 13.3702 15.0121 13.1272 15.0121H11.7548L10.9615 15.7295C10.3325 15.5502 9.54984 14.971 8.61352 13.992C7.67719 13.0129 7.12326 12.1871 6.95172 11.5145L7.63788 10.7074ZM9.0102 3.53285L9.22463 4.99018C10.6541 5.02007 11.9764 5.41243 13.1915 6.16725C14.4066 6.92207 15.3715 7.93099 16.0862 9.194C16.801 10.457 17.1798 11.8359 17.2227 13.3306L18.6164 13.5772C18.6164 12.217 18.3627 10.9166 17.8552 9.67604C17.3478 8.43544 16.6652 7.36674 15.8075 6.46992C14.9498 5.57311 13.9277 4.85939 12.7412 4.32878C11.5547 3.79816 10.311 3.53285 9.0102 3.53285Z" fill="#5F3993"/>
</g>
<defs>
<clipPath id="clip0">
<rect width="22" height="22.9809" fill="white" transform="translate(0.733398 0.640625)"/>
</clipPath>
</defs>
</svg>
