<svg width="394" height="242" viewBox="0 0 394 242" fill="none" xmlns="http://www.w3.org/2000/svg">
<path d="M376.601 0.707031H17.3989C8.09973 0.707031 0.561279 8.23113 0.561279 17.5126V224.781C0.561279 234.063 8.09973 241.587 17.3989 241.587H376.601C385.9 241.587 393.439 234.063 393.439 224.781V17.5126C393.439 8.23113 385.9 0.707031 376.601 0.707031Z" fill="black"/>
<path d="M376.601 0.707031H17.3989C8.09973 0.707031 0.561279 8.23113 0.561279 17.5126V224.781C0.561279 234.063 8.09973 241.587 17.3989 241.587H376.601C385.9 241.587 393.439 234.063 393.439 224.781V17.5126C393.439 8.23113 385.9 0.707031 376.601 0.707031Z" fill="url(#paint0_linear)"/>
<path d="M119.672 107.142V83.247H128.271C131.352 83.247 133.693 83.8104 135.292 84.9374C136.904 86.0643 137.71 87.7 137.71 89.8445C137.71 91.0808 137.425 92.1367 136.855 93.0119C136.285 93.8872 135.446 94.5327 134.339 94.9485C135.589 95.2767 136.549 95.8895 137.216 96.7865C137.885 97.6837 138.22 98.7779 138.22 100.069C138.22 102.41 137.475 104.172 135.984 105.353C134.503 106.524 132.305 107.12 129.39 107.142H119.672ZM125.444 96.9835V102.711H129.225C130.267 102.711 131.067 102.476 131.626 102.006C132.185 101.524 132.465 100.851 132.465 99.9869C132.465 97.9956 131.473 96.9945 129.488 96.9835H125.444ZM125.444 93.2089H128.453C129.714 93.1979 130.612 92.9681 131.149 92.5196C131.686 92.071 131.955 91.409 131.955 90.5337C131.955 89.5272 131.664 88.805 131.083 88.3674C130.503 87.9188 129.565 87.6945 128.271 87.6945H125.444V93.2089ZM155.008 102.678H147.099L145.717 107.142H139.551L148.333 83.247H153.759L162.604 107.142H156.406L155.008 102.678ZM148.48 98.2308H153.626L151.046 89.9429L148.48 98.2308ZM173.26 98.7067H170.135V107.142H164.364V83.247H173.785C176.625 83.247 178.845 83.8761 180.445 85.1343C182.046 86.3925 182.846 88.1704 182.846 90.4681C182.846 92.1312 182.506 93.5097 181.826 94.6038C181.158 95.698 180.105 96.5842 178.669 97.2626L183.668 106.896V107.142H177.485L173.26 98.7067ZM170.135 94.2592H173.785C174.882 94.2592 175.704 93.9747 176.253 93.4058C176.812 92.8259 177.091 92.0217 177.091 90.9933C177.091 89.9648 176.812 89.1606 176.253 88.5807C175.694 87.9899 174.871 87.6945 173.785 87.6945H170.135V94.2592ZM206.606 95.687C206.606 98.0175 206.173 100.08 205.307 101.874C204.441 103.669 203.207 105.053 201.607 106.026C200.017 106.989 198.203 107.471 196.165 107.471C194.125 107.471 192.317 107.006 190.739 106.076C189.16 105.135 187.927 103.794 187.039 102.055C186.162 100.315 185.702 98.3183 185.658 96.0645V94.7187C185.658 92.3773 186.085 90.3149 186.94 88.5315C187.807 86.7371 189.039 85.3532 190.64 84.3793C192.252 83.4056 194.082 82.9187 196.132 82.9187C198.16 82.9187 199.969 83.4001 201.559 84.363C203.148 85.3258 204.381 86.6988 205.257 88.4822C206.145 90.2548 206.595 92.2898 206.606 94.5875V95.687ZM200.736 94.6858C200.736 92.3117 200.336 90.5119 199.536 89.2864C198.747 88.0501 197.612 87.4319 196.132 87.4319C193.237 87.4319 191.709 89.5982 191.545 93.9309L191.528 95.687C191.528 98.0284 191.917 99.8282 192.695 101.086C193.473 102.345 194.63 102.974 196.165 102.974C197.623 102.974 198.747 102.356 199.536 101.119C200.325 99.8829 200.725 98.105 200.736 95.7855V94.6858ZM228.952 99.0514C228.875 100.714 228.426 102.186 227.604 103.466C226.781 104.735 225.625 105.72 224.134 106.42C222.654 107.12 220.961 107.471 219.053 107.471C215.908 107.471 213.43 106.448 211.621 104.402C209.812 102.356 208.908 99.4671 208.908 95.7362V94.5546C208.908 92.2132 209.314 90.1672 210.124 88.4166C210.947 86.6551 212.126 85.2984 213.66 84.3465C215.195 83.3838 216.971 82.9023 218.988 82.9023C221.893 82.9023 224.228 83.6682 225.992 85.2C227.757 86.7208 228.76 88.8215 229.002 91.5021H223.246C223.203 90.0468 222.836 89.002 222.144 88.3674C221.454 87.7328 220.402 87.4155 218.988 87.4155C217.552 87.4155 216.499 87.9516 215.83 89.0238C215.162 90.0961 214.811 91.8084 214.778 94.1607V95.8511C214.778 98.4004 215.096 100.222 215.732 101.316C216.379 102.41 217.486 102.957 219.053 102.957C220.38 102.957 221.393 102.646 222.095 102.022C222.796 101.398 223.169 100.408 223.214 99.0514H228.952ZM251.051 99.0514C250.975 100.714 250.526 102.186 249.703 103.466C248.881 104.735 247.724 105.72 246.233 106.42C244.754 107.12 243.06 107.471 241.153 107.471C238.006 107.471 235.529 106.448 233.721 104.402C231.912 102.356 231.007 99.4671 231.007 95.7362V94.5546C231.007 92.2132 231.413 90.1672 232.224 88.4166C233.046 86.6551 234.225 85.2984 235.759 84.3465C237.294 83.3838 239.07 82.9023 241.086 82.9023C243.992 82.9023 246.326 83.6682 248.092 85.2C249.857 86.7208 250.859 88.8215 251.1 91.5021H245.345C245.302 90.0468 244.934 89.002 244.244 88.3674C243.554 87.7328 242.501 87.4155 241.086 87.4155C239.651 87.4155 238.599 87.9516 237.93 89.0238C237.261 90.0961 236.911 91.8084 236.877 94.1607V95.8511C236.877 98.4004 237.196 100.222 237.831 101.316C238.478 102.41 239.586 102.957 241.153 102.957C242.48 102.957 243.493 102.646 244.195 102.022C244.896 101.398 245.269 100.408 245.313 99.0514H251.051ZM274.056 95.687C274.056 98.0175 273.622 100.08 272.756 101.874C271.89 103.669 270.657 105.053 269.056 106.026C267.467 106.989 265.653 107.471 263.614 107.471C261.574 107.471 259.766 107.006 258.188 106.076C256.61 105.135 255.376 103.794 254.488 102.055C253.611 100.315 253.15 98.3183 253.106 96.0645V94.7187C253.106 92.3773 253.534 90.3149 254.389 88.5315C255.255 86.7371 256.488 85.3532 258.089 84.3793C259.7 83.4056 261.531 82.9187 263.58 82.9187C265.609 82.9187 267.417 83.4001 269.007 84.363C270.596 85.3258 271.83 86.6988 272.706 88.4822C273.594 90.2548 274.044 92.2898 274.056 94.5875V95.687ZM268.185 94.6858C268.185 92.3117 267.785 90.5119 266.985 89.2864C266.196 88.0501 265.061 87.4319 263.58 87.4319C260.687 87.4319 259.158 89.5982 258.994 93.9309L258.977 95.687C258.977 98.0284 259.367 99.8282 260.144 101.086C260.922 102.345 262.08 102.974 263.614 102.974C265.072 102.974 266.196 102.356 266.985 101.119C267.774 99.8829 268.174 98.105 268.185 95.7855V94.6858Z" fill="white"/>
<path d="M160.644 134.403C160.644 133.561 160.343 132.904 159.741 132.434C159.148 131.963 158.102 131.477 156.6 130.973C155.098 130.47 153.87 129.984 152.917 129.513C149.814 127.992 148.263 125.902 148.263 123.243C148.263 121.919 148.647 120.754 149.413 119.748C150.193 118.731 151.288 117.942 152.702 117.384C154.117 116.816 155.706 116.531 157.471 116.531C159.192 116.531 160.732 116.837 162.091 117.45C163.462 118.063 164.525 118.938 165.281 120.076C166.038 121.203 166.416 122.494 166.416 123.949H160.661C160.661 122.976 160.359 122.22 159.756 121.684C159.165 121.148 158.359 120.881 157.34 120.881C156.309 120.881 155.492 121.11 154.889 121.57C154.298 122.018 154.001 122.592 154.001 123.293C154.001 123.906 154.33 124.463 154.988 124.967C155.646 125.458 156.802 125.973 158.458 126.509C160.113 127.035 161.473 127.604 162.536 128.216C165.123 129.705 166.416 131.756 166.416 134.371C166.416 136.46 165.627 138.102 164.049 139.294C162.469 140.487 160.305 141.083 157.553 141.083C155.613 141.083 153.853 140.738 152.275 140.049C150.708 139.349 149.524 138.396 148.723 137.193C147.934 135.979 147.54 134.584 147.54 133.009H153.328C153.328 134.288 153.657 135.235 154.314 135.848C154.982 136.449 156.062 136.751 157.553 136.751C158.507 136.751 159.258 136.548 159.806 136.143C160.365 135.728 160.644 135.147 160.644 134.403ZM188.17 121.306H180.984V140.755H175.213V121.306H168.159V116.86H188.17V121.306ZM199.647 127.231L204.054 116.86H210.286L202.574 132.172V140.755H196.72V132.172L189.026 116.86H195.224L199.647 127.231ZM217.8 136.324H227.846V140.755H212.029V116.86H217.8V136.324ZM245.129 130.629H236.052V136.324H246.773V140.755H230.28V116.86H246.806V121.306H236.052V126.345H245.129V130.629Z" fill="white"/>
<path d="M157.735 204.046H157.712C157.727 204.599 157.735 205.133 157.735 205.648V210.219H156.859V202.579H157.735L160.227 206.253C161.094 207.537 161.633 208.374 161.843 208.763H161.866C161.851 208.472 161.843 207.929 161.843 207.138V202.579H162.719V210.219H161.843L159.351 206.545C158.468 205.245 157.929 204.411 157.735 204.046ZM164.189 208.124C163.793 207.736 163.594 207.235 163.594 206.623C163.594 206.01 163.796 205.514 164.2 205.133C164.604 204.744 165.113 204.55 165.727 204.55C166.356 204.55 166.869 204.752 167.265 205.155C167.661 205.551 167.86 206.04 167.86 206.623C167.86 207.22 167.661 207.717 167.265 208.113C166.875 208.509 166.363 208.707 165.727 208.707C165.106 208.707 164.593 208.512 164.189 208.124ZM164.414 206.623C164.414 207.004 164.537 207.321 164.784 207.575C165.031 207.829 165.345 207.956 165.727 207.956C166.116 207.956 166.434 207.833 166.681 207.587C166.928 207.332 167.051 207.011 167.051 206.623C167.051 206.242 166.928 205.924 166.681 205.671C166.434 205.416 166.116 205.29 165.727 205.29C165.345 205.29 165.031 205.409 164.784 205.648C164.537 205.879 164.414 206.204 164.414 206.623ZM167.691 210.219H163.763V209.491H167.691V210.219ZM170.293 204.248H169.339C169.392 203.739 169.609 203.296 169.99 202.915C170.38 202.526 170.919 202.332 171.607 202.332C172.258 202.332 172.782 202.518 173.178 202.892C173.582 203.257 173.784 203.721 173.784 204.281C173.784 204.722 173.646 205.095 173.369 205.402C173.1 205.7 172.763 205.906 172.359 206.018V206.04C172.853 206.114 173.26 206.332 173.582 206.69C173.904 207.041 174.065 207.508 174.065 208.091C174.065 208.755 173.848 209.315 173.414 209.771C172.987 210.226 172.381 210.455 171.595 210.455C170.862 210.455 170.282 210.256 169.856 209.861C169.429 209.464 169.185 208.965 169.126 208.36H170.114C170.181 208.741 170.346 209.046 170.608 209.278C170.877 209.509 171.225 209.626 171.652 209.626C172.078 209.626 172.426 209.48 172.695 209.189C172.973 208.897 173.111 208.539 173.111 208.113C173.111 207.665 172.965 207.291 172.673 206.993C172.389 206.694 171.947 206.54 171.348 206.533H170.922V205.682H171.292C171.749 205.682 172.115 205.562 172.392 205.323C172.676 205.084 172.819 204.752 172.819 204.326C172.819 204.013 172.715 203.739 172.505 203.508C172.303 203.277 171.999 203.161 171.595 203.161C171.183 203.161 170.869 203.269 170.652 203.486C170.443 203.694 170.324 203.949 170.293 204.248ZM180.446 208.382H179.47V210.219H178.549V208.382H175.025V207.587L178.594 202.579H179.47V207.531H180.446V208.382ZM177.999 204.718L176.012 207.531H178.549V204.763C178.549 204.405 178.554 204.12 178.561 203.912H178.527C178.43 204.091 178.254 204.36 177.999 204.718ZM183.135 203.43L182.921 205.458C183.221 205.375 183.558 205.335 183.932 205.335C184.748 205.335 185.402 205.554 185.896 205.996C186.398 206.428 186.648 207.03 186.648 207.799C186.648 208.113 186.592 208.427 186.48 208.741C186.368 209.046 186.207 209.33 185.997 209.592C185.788 209.853 185.511 210.063 185.167 210.219C184.823 210.383 184.441 210.466 184.022 210.466C183.281 210.466 182.682 210.264 182.226 209.861C181.77 209.458 181.512 208.957 181.451 208.36H182.439C182.499 208.725 182.663 209.027 182.933 209.267C183.21 209.506 183.584 209.626 184.055 209.626C184.512 209.626 184.897 209.469 185.211 209.155C185.526 208.841 185.683 208.434 185.683 207.934C185.683 207.366 185.519 206.932 185.189 206.634C184.868 206.335 184.4 206.186 183.786 206.186C183.24 206.186 182.623 206.287 181.934 206.489L182.304 202.579H186.121V203.43H183.135ZM187.553 207.721C187.553 207.019 187.822 206.298 188.361 205.559L190.528 202.579H191.56L189.675 205.122C189.877 205.032 190.164 204.987 190.539 204.987C191.28 204.987 191.897 205.252 192.391 205.783C192.885 206.313 193.132 206.959 193.132 207.721C193.132 208.483 192.862 209.133 192.324 209.67C191.785 210.2 191.123 210.466 190.337 210.466C189.543 210.466 188.881 210.208 188.35 209.693C187.818 209.17 187.553 208.512 187.553 207.721ZM188.518 207.732C188.518 208.277 188.69 208.733 189.035 209.099C189.378 209.458 189.813 209.637 190.337 209.637C190.86 209.637 191.294 209.458 191.639 209.099C191.99 208.733 192.166 208.277 192.166 207.732C192.166 207.187 191.998 206.731 191.661 206.365C191.325 205.991 190.882 205.805 190.337 205.805C189.798 205.805 189.36 205.984 189.023 206.343C188.687 206.701 188.518 207.164 188.518 207.732ZM199.12 202.579V203.363L195.798 210.219H194.788L198.144 203.43H194.417V202.579H199.12ZM201.64 204.427C201.64 204.808 201.767 205.125 202.022 205.379C202.284 205.626 202.591 205.749 202.943 205.749C203.339 205.749 203.658 205.629 203.897 205.391C204.144 205.144 204.267 204.823 204.267 204.427C204.267 204.053 204.144 203.755 203.897 203.531C203.658 203.299 203.343 203.184 202.954 203.184C202.587 203.184 202.277 203.299 202.022 203.531C201.767 203.755 201.64 204.053 201.64 204.427ZM201.393 208.113C201.393 208.553 201.539 208.915 201.831 209.2C202.123 209.483 202.501 209.626 202.965 209.626C203.429 209.626 203.803 209.495 204.087 209.234C204.371 208.971 204.514 208.598 204.514 208.113C204.514 207.657 204.368 207.287 204.076 207.004C203.792 206.719 203.425 206.578 202.976 206.578C202.513 206.578 202.131 206.724 201.831 207.015C201.539 207.299 201.393 207.665 201.393 208.113ZM205.468 208.124C205.468 208.789 205.252 209.346 204.817 209.794C204.391 210.234 203.773 210.455 202.965 210.455C202.157 210.455 201.532 210.234 201.09 209.794C200.656 209.352 200.439 208.815 200.439 208.18C200.439 207.187 200.907 206.507 201.842 206.141V206.119C201.065 205.797 200.675 205.215 200.675 204.371C200.675 203.803 200.888 203.321 201.315 202.926C201.741 202.529 202.291 202.332 202.965 202.332C203.631 202.332 204.174 202.529 204.593 202.926C205.019 203.321 205.232 203.803 205.232 204.371C205.232 204.797 205.128 205.167 204.918 205.48C204.708 205.786 204.435 205.999 204.099 206.119V206.141C205.011 206.47 205.468 207.131 205.468 208.124ZM212.052 205.077C212.052 205.778 211.782 206.5 211.243 207.239L209.077 210.219H208.044L209.93 207.676C209.728 207.766 209.441 207.811 209.066 207.811C208.325 207.811 207.708 207.545 207.214 207.015C206.72 206.484 206.473 205.839 206.473 205.077C206.473 204.315 206.742 203.669 207.281 203.139C207.82 202.601 208.482 202.332 209.268 202.332C210.061 202.332 210.724 202.593 211.255 203.116C211.787 203.632 212.052 204.285 212.052 205.077ZM211.086 205.066C211.086 204.52 210.915 204.069 210.57 203.71C210.226 203.344 209.792 203.161 209.268 203.161C208.745 203.161 208.307 203.344 207.955 203.71C207.611 204.069 207.438 204.52 207.438 205.066C207.438 205.61 207.607 206.07 207.943 206.444C208.28 206.809 208.722 206.993 209.268 206.993C209.807 206.993 210.244 206.814 210.581 206.455C210.918 206.096 211.086 205.633 211.086 205.066ZM212.811 206.354C212.811 205.652 212.889 205.032 213.046 204.494C213.21 203.957 213.428 203.538 213.697 203.24C213.973 202.933 214.27 202.705 214.584 202.556C214.898 202.406 215.231 202.332 215.583 202.332C215.927 202.332 216.249 202.399 216.548 202.534C216.855 202.668 217.143 202.881 217.413 203.172C217.689 203.464 217.907 203.878 218.064 204.416C218.228 204.954 218.311 205.584 218.311 206.309C218.311 206.959 218.247 207.537 218.12 208.046C218 208.546 217.846 208.946 217.66 209.245C217.472 209.536 217.251 209.778 216.997 209.973C216.743 210.167 216.499 210.298 216.268 210.365C216.043 210.432 215.811 210.466 215.572 210.466C215.227 210.466 214.902 210.399 214.595 210.264C214.288 210.13 213.996 209.917 213.72 209.626C213.442 209.327 213.221 208.897 213.057 208.337C212.892 207.777 212.811 207.116 212.811 206.354ZM217.357 206.354C217.357 205.293 217.2 204.498 216.885 203.968C216.578 203.43 216.136 203.161 215.561 203.161C215.036 203.161 214.607 203.419 214.27 203.934C213.94 204.442 213.776 205.237 213.776 206.321C213.776 208.531 214.382 209.637 215.594 209.637C216.103 209.637 216.522 209.371 216.852 208.841C217.188 208.31 217.357 207.481 217.357 206.354ZM220.55 204.427C220.55 204.808 220.677 205.125 220.932 205.379C221.193 205.626 221.501 205.749 221.852 205.749C222.249 205.749 222.567 205.629 222.806 205.391C223.053 205.144 223.177 204.823 223.177 204.427C223.177 204.053 223.053 203.755 222.806 203.531C222.567 203.299 222.253 203.184 221.864 203.184C221.496 203.184 221.187 203.299 220.932 203.531C220.677 203.755 220.55 204.053 220.55 204.427ZM220.303 208.113C220.303 208.553 220.449 208.915 220.741 209.2C221.033 209.483 221.411 209.626 221.875 209.626C222.338 209.626 222.713 209.495 222.997 209.234C223.281 208.971 223.424 208.598 223.424 208.113C223.424 207.657 223.278 207.287 222.986 207.004C222.702 206.719 222.335 206.578 221.886 206.578C221.422 206.578 221.041 206.724 220.741 207.015C220.449 207.299 220.303 207.665 220.303 208.113ZM224.378 208.124C224.378 208.789 224.161 209.346 223.727 209.794C223.3 210.234 222.683 210.455 221.875 210.455C221.067 210.455 220.441 210.234 220 209.794C219.566 209.352 219.349 208.815 219.349 208.18C219.349 207.187 219.817 206.507 220.752 206.141V206.119C219.974 205.797 219.585 205.215 219.585 204.371C219.585 203.803 219.798 203.321 220.225 202.926C220.651 202.529 221.201 202.332 221.875 202.332C222.54 202.332 223.084 202.529 223.502 202.926C223.929 203.321 224.142 203.803 224.142 204.371C224.142 204.797 224.038 205.167 223.828 205.48C223.618 205.786 223.345 205.999 223.008 206.119V206.141C223.921 206.47 224.378 207.131 224.378 208.124ZM230.636 202.579V203.363L227.313 210.219H226.303L229.659 203.43H225.933V202.579H230.636ZM231.674 207.721C231.674 207.019 231.944 206.298 232.482 205.559L234.649 202.579H235.682L233.796 205.122C233.998 205.032 234.286 204.987 234.66 204.987C235.401 204.987 236.018 205.252 236.512 205.783C237.006 206.313 237.253 206.959 237.253 207.721C237.253 208.483 236.984 209.133 236.445 209.67C235.906 210.2 235.244 210.466 234.458 210.466C233.666 210.466 233.003 210.208 232.471 209.693C231.94 209.17 231.674 208.512 231.674 207.721ZM232.64 207.732C232.64 208.277 232.812 208.733 233.156 209.099C233.501 209.458 233.935 209.637 234.458 209.637C234.982 209.637 235.417 209.458 235.76 209.099C236.113 208.733 236.288 208.277 236.288 207.732C236.288 207.187 236.119 206.731 235.783 206.365C235.446 205.991 235.005 205.805 234.458 205.805C233.919 205.805 233.481 205.984 233.145 206.343C232.808 206.701 232.64 207.164 232.64 207.732Z" fill="white"/>
<defs>
<linearGradient id="paint0_linear" x1="11.3467" y1="0.70701" x2="393.023" y2="242.244" gradientUnits="userSpaceOnUse">
<stop/>
<stop offset="0.492039" stop-color="#5B5B5B" stop-opacity="0.49"/>
<stop offset="1"/>
</linearGradient>
</defs>
</svg>
