<svg width="26" height="28" viewBox="0 0 26 28" fill="none" xmlns="http://www.w3.org/2000/svg">
<path d="M21.5937 17.9052C20.27 16.453 18.6944 15.378 16.9754 14.7272C18.8165 13.336 20.0261 11.0077 20.0261 8.37499C20.0261 4.12463 16.8742 0.666656 13 0.666656C9.12578 0.666656 5.97385 4.12463 5.97385 8.37499C5.97385 11.0077 7.18343 13.336 9.02461 14.7272C7.30558 15.378 5.73002 16.453 4.40631 17.9052C2.11086 20.4236 0.84668 23.7719 0.84668 27.3333H2.74563C2.74563 21.13 7.3457 16.0833 13 16.0833C18.6542 16.0833 23.2543 21.13 23.2543 27.3333H25.1533C25.1533 23.7719 23.8891 20.4236 21.5937 17.9052ZM13 14C10.1729 14 7.8728 11.4767 7.8728 8.37499C7.8728 5.27332 10.1729 2.74999 13 2.74999C15.8271 2.74999 18.1271 5.27332 18.1271 8.37499C18.1271 11.4767 15.8271 14 13 14Z" fill="black"/>
</svg>
