<svg id="Слой_1" data-name="Слой 1" xmlns="http://www.w3.org/2000/svg" xmlns:xlink="http://www.w3.org/1999/xlink" viewBox="0 0 286.47 35.33"><defs><style>.cls-1,.cls-2{fill:none;}.cls-2{clip-rule:evenodd;}.cls-3{clip-path:url(#clip-path);}.cls-4{fill:#010000;}.cls-4,.cls-9{fill-rule:evenodd;}.cls-5{clip-path:url(#clip-path-2);}.cls-6{clip-path:url(#clip-path-3);}.cls-7{clip-path:url(#clip-path-4);}.cls-8{clip-path:url(#clip-path-5);}.cls-9{fill:#fff;}.cls-10{clip-path:url(#clip-path-6);}.cls-11{clip-path:url(#clip-path-7);}</style><clipPath id="clip-path" transform="translate(-66.46 -192.32)"><rect class="cls-1" x="65.37" y="188.49" width="37.88" height="41.25"/></clipPath><clipPath id="clip-path-2" transform="translate(-66.46 -192.32)"><rect class="cls-1" x="104.26" y="188.95" width="43.2" height="41.25"/></clipPath><clipPath id="clip-path-3" transform="translate(-66.46 -192.32)"><rect class="cls-1" x="148.48" y="188.95" width="42.67" height="41.25"/></clipPath><clipPath id="clip-path-4" transform="translate(-66.46 -192.32)"><rect class="cls-1" x="237.44" y="187.76" width="42.75" height="41.25"/></clipPath><clipPath id="clip-path-5" transform="translate(-66.46 -192.32)"><rect class="cls-1" x="261.89" y="187.71" width="48" height="41.25"/></clipPath><clipPath id="clip-path-6" transform="translate(-66.46 -192.32)"><path class="cls-2" d="M192.18,229.31h44.25V196.38a7,7,0,0,0-1.56-.93c-1.77-.55-2.09-1.25-2.82-1.6a15.5,15.5,0,0,1-2.4-1.8l-2.4-1.8a6.14,6.14,0,0,1-2.63-2.19H192.18Z"/></clipPath><clipPath id="clip-path-7" transform="translate(-66.46 -192.32)"><path class="cls-2" d="M310.91,229.27h44.25V196.33a7,7,0,0,0-1.56-.93c-1.77-.55-2.08-1.25-2.82-1.6a16,16,0,0,1-2.4-1.8l-2.4-1.8a6.27,6.27,0,0,1-2.63-2.18H310.91Z"/></clipPath></defs><title>BAROCCO  logo</title><g class="cls-3"><path class="cls-4" d="M71.79,192.86l-5.33.24v34l5,.16,9.83.32c7.62.25,12.47-.68,16.27-3.12a8,8,0,0,0,4-5.77c.48-4.64-3-8.33-9-9.71-1.81-.41-2.13-.55-1.54-.7,3.87-.94,5.8-2.06,7.22-4.18a4,4,0,0,0,.75-3.34c-.28-3.3-2.27-5.45-6.34-6.87s-8.76-1.62-20.82-1ZM86.44,195c5.27,1.29,7.93,7.26,4,9.86-2.5,1.63-5.06,2.56-11.85,2.68H73.42V195l.48-.1c4.28-.49,10.07-.51,12.54.1Zm-2.31,15.08c7.13.87,11.51,4.2,11.06,8-.23,2-2,4.19-4.21,5.32-3.06,1.6-6.48,2-14.75,1.48l-2.81-.48V209.82h3.73C79.57,209.83,82.58,209.92,84.13,210.11Z" transform="translate(-66.46 -192.32)"/></g><g class="cls-5"><path class="cls-4" d="M124.45,193.82c-.81,1.35-17.81,33.49-17.81,33.67a8.69,8.69,0,0,0,2.34.16h1l2.54-5L115,218h9.51l8.06.07,2.44,4.82,2.44,4.81H141c2.67,0,3.49-.08,3.35-.32l-9-17c-4.87-9.14-8.95-16.8-9.07-17-.37-.66-1.27-.43-1.8.45Zm3.51,15,3,6H124.6c-3.49,0-8,.06-8,0s5.3-11.22,6.55-12.22c.27-.29.69-1,1.07-.29S126.31,205.58,128,208.85Z" transform="translate(-66.46 -192.32)"/></g><g class="cls-6"><path class="cls-4" d="M161.92,193.13c-3.3.18-7,.34-8.33.35l-2.34,0v34.15h6.36V212.12h2.51c5,0,5.48.52,7,2.56a66.61,66.61,0,0,0,12.14,11.56l1.94,1.41h9.51l-3.24-2.12a66.05,66.05,0,0,1-9.87-7.77c-2-1.94-4.3-4.71-4.3-5.22,0-.13.63-.32,1.4-.42a22,22,0,0,0,7.77-2.84,12.09,12.09,0,0,0,2.74-2.63c.89-1.3,1-2,1-4.17a9.48,9.48,0,0,0-3.3-6.26c-4.26-2.92-9.71-3.72-21-3.09Zm12.15,3.27c3.91,1.2,6,3.67,6,6.63a5,5,0,0,1-2.81,4.3c-2.89,1.74-6.53,2.82-14.35,2.55h-5.3V195.77l.59-.15a79.08,79.08,0,0,1,9.36-.23A17.44,17.44,0,0,1,174.07,196.4Z" transform="translate(-66.46 -192.32)"/></g><g class="cls-7"><path class="cls-4" d="M255.43,192.94a22.43,22.43,0,0,0-8.47,3.53c-6.93,4.91-9.19,13.63-5.42,20.92,3.41,6.62,10.5,10.26,20,10.26a23.64,23.64,0,0,0,8.9-1.48c1.83-.52,7.49-4.32,7.49-4.69a33.44,33.44,0,0,0-5.33-2.56c-.15,0-.56.39-1.06,1.09a10.15,10.15,0,0,1-4.76,3.79,13,13,0,0,1-5.24,1.13,17.75,17.75,0,0,1-6.07-1.13c-3.55-1.6-5.42-3.61-7.24-7.2-1.25-2.47-1.42-8.19-.52-11.12,1.32-4.32,5.42-9.26,9.92-10.41a13,13,0,0,1,13.71,4.69c.59.79,1.29,1.44,1.56,1.44a40.35,40.35,0,0,0,5.37-2,6.64,6.64,0,0,0-1.46-1.51,22.35,22.35,0,0,0-7.86-4.33,19.54,19.54,0,0,0-7-1A23.23,23.23,0,0,0,255.43,192.94Z" transform="translate(-66.46 -192.32)"/></g><g class="cls-8"><path class="cls-9" d="M279.12,192.89a22.5,22.5,0,0,0-8.47,3.53c-6.92,4.91-9.18,13.63-5.42,20.92,3.42,6.62,10.5,10.26,20,10.26a23.73,23.73,0,0,0,8.91-1.48c1.83-.52,7.49-4.32,7.49-4.69a33.86,33.86,0,0,0-5.33-2.56c-.15,0-.56.39-1.07,1.09a10.17,10.17,0,0,1-4.75,3.79,13,13,0,0,1-5.25,1.13,17.8,17.8,0,0,1-6.07-1.13c-3.54-1.6-5.41-3.61-7.24-7.2-1.25-2.47-1.42-8.19-.52-11.12,1.33-4.32,5.42-9.26,9.92-10.41A13.05,13.05,0,0,1,295,199.71c.58.79,1.28,1.44,1.56,1.44a39.75,39.75,0,0,0,5.36-2,6.38,6.38,0,0,0-1.46-1.51,22.26,22.26,0,0,0-7.86-4.33,19.48,19.48,0,0,0-7-1A23.31,23.31,0,0,0,279.12,192.89Z" transform="translate(-66.46 -192.32)"/><path class="cls-4" d="M285.12,192.89a22.5,22.5,0,0,0-8.47,3.53c-6.92,4.91-9.18,13.63-5.42,20.92,3.42,6.62,10.5,10.26,20,10.26a23.73,23.73,0,0,0,8.91-1.48c1.83-.52,7.49-4.32,7.49-4.69a33.86,33.86,0,0,0-5.33-2.56c-.15,0-.56.39-1.07,1.09a10.17,10.17,0,0,1-4.75,3.79,13,13,0,0,1-5.25,1.13,17.8,17.8,0,0,1-6.07-1.13c-3.54-1.6-5.41-3.61-7.24-7.2-1.25-2.47-1.42-8.19-.52-11.12,1.33-4.32,5.42-9.26,9.92-10.41A13.05,13.05,0,0,1,301,199.71c.58.79,1.28,1.44,1.56,1.44a39.75,39.75,0,0,0,5.36-2,6.38,6.38,0,0,0-1.46-1.51,22.26,22.26,0,0,0-7.86-4.33,19.48,19.48,0,0,0-7-1A23.31,23.31,0,0,0,285.12,192.89Z" transform="translate(-66.46 -192.32)"/></g><g class="cls-10"><path class="cls-4" d="M208,193c-6.37,1.39-11.53,5.32-13.46,11.72a18.78,18.78,0,0,0,.24,11.2c2.66,8,10.69,11.75,18.8,11.76,10.09,0,16.89-4.05,19.66-11.76a19.12,19.12,0,0,0,.21-11.33,17.35,17.35,0,0,0-6-8.12,18,18,0,0,0-7.83-3.49A35.19,35.19,0,0,0,208,193Zm10.55,1.78c3.71,1.69,6.37,5.24,7.95,9.24,1,2.58,1.11,8.46.18,11.34a14.69,14.69,0,0,1-5.21,7.81c-4.13,3.48-11.75,3.34-15.55,0-3.22-2.83-4.27-4.83-5.1-7.81-1-2.67-.63-8.67.43-11.34,1.7-4.29,4.52-7.93,8.28-9.41A10.69,10.69,0,0,1,218.53,194.75Z" transform="translate(-66.46 -192.32)"/></g><g class="cls-11"><path class="cls-4" d="M326.71,192.92c-6.37,1.4-11.53,5.32-13.46,11.73a18.79,18.79,0,0,0,.24,11.2c2.66,8,10.69,11.74,18.8,11.75,10.09,0,16.89-4,19.66-11.75a19.07,19.07,0,0,0,.21-11.34,17.31,17.31,0,0,0-6-8.12,18.06,18.06,0,0,0-7.83-3.48,35,35,0,0,0-11.64,0Zm10.56,1.78c3.7,1.69,6.36,5.25,7.94,9.24,1,2.59,1.12,8.46.19,11.34a14.78,14.78,0,0,1-5.22,7.81c-4.12,3.49-11.74,3.34-15.55,0-3.22-2.82-4.26-4.83-5.1-7.81-1-2.67-.62-8.67.44-11.34,1.7-4.29,4.51-7.93,8.28-9.41A10.69,10.69,0,0,1,337.27,194.7Z" transform="translate(-66.46 -192.32)"/></g></svg>