<svg width="29" height="29" viewBox="0 0 29 29" fill="none" xmlns="http://www.w3.org/2000/svg">
<g clip-path="url(#clip0)">
<path d="M26.1209 13.0714L25.3958 10.0804C25.5941 10.037 25.7428 9.85564 25.7428 9.63834V9.15609C25.7428 8.10904 24.9168 7.25722 23.9015 7.25722H20.5988V6.2625C20.5988 5.74726 20.1924 5.32812 19.6928 5.32812H2.85765C2.35802 5.32812 1.95159 5.74726 1.95159 6.2625V14.4609C1.95159 14.7105 2.14786 14.913 2.39002 14.913C2.63212 14.913 2.82844 14.7106 2.82844 14.4609V6.2625C2.82844 6.24587 2.84152 6.23239 2.85765 6.23239H19.6927C19.7088 6.23239 19.7219 6.24587 19.7219 6.2625V14.461C19.7219 14.7106 19.9182 14.9131 20.1603 14.9131C20.4024 14.9131 20.5988 14.7107 20.5988 14.461V13.9484H25.7705C25.7709 13.9484 25.7713 13.9486 25.7717 13.9486C25.7721 13.9486 25.7725 13.9485 25.7729 13.9485C26.4093 13.9489 26.9496 14.3797 27.1352 14.9733H25.772C25.5299 14.9733 25.3336 15.1757 25.3336 15.4254V16.3899C25.3336 17.171 25.9498 17.8065 26.7072 17.8065H27.2041V19.7958H26.0578C25.6812 18.6745 24.6476 17.8668 23.4338 17.8668C22.22 17.8668 21.1863 18.6745 20.8097 19.7958H20.5987V16.3898C20.5987 16.1402 20.4024 15.9377 20.1602 15.9377C19.9181 15.9377 19.7218 16.1401 19.7218 16.3898V19.7957H10.6257C10.2492 18.6744 9.21551 17.8666 8.00172 17.8666C6.78793 17.8666 5.75423 18.6744 5.3777 19.7957H2.85765C2.84152 19.7957 2.82844 19.7822 2.82844 19.7656V18.7709H4.72823C4.97034 18.7709 5.16666 18.5685 5.16666 18.3188C5.16666 18.0691 4.97039 17.8666 4.72823 17.8666H0.519484C0.277383 17.8666 0.0810547 18.0691 0.0810547 18.3188C0.0810547 18.5685 0.277328 18.7709 0.519484 18.7709H1.95164V19.7656C1.95164 20.2808 2.35808 20.6999 2.8577 20.6999H5.22589C5.22578 20.71 5.22512 20.72 5.22512 20.7301C5.22512 22.3089 6.47074 23.5934 8.00172 23.5934C9.53269 23.5934 10.7783 22.3089 10.7783 20.7301C10.7783 20.7199 10.7777 20.71 10.7775 20.6999H20.6579C20.6578 20.71 20.6572 20.72 20.6572 20.7301C20.6572 22.3089 21.9028 23.5934 23.4338 23.5934C24.9647 23.5934 26.2104 22.3089 26.2104 20.7301C26.2104 20.7199 26.2097 20.71 26.2096 20.6999H27.6426C27.8847 20.6999 28.081 20.4975 28.081 20.2478V15.4253C28.0811 14.2347 27.2292 13.2454 26.1209 13.0714ZM20.5988 8.16143H23.9015C24.4333 8.16143 24.866 8.60764 24.866 9.15609V9.18621H20.5988V8.16143ZM20.5988 13.0442V10.0904H24.4945L25.2106 13.0442H20.5988ZM8.00172 22.6893C6.95418 22.6893 6.10193 21.8105 6.10193 20.7302C6.10193 19.6498 6.95418 18.771 8.00172 18.771C9.04926 18.771 9.90151 19.6498 9.90151 20.7302C9.90151 21.8105 9.04926 22.6893 8.00172 22.6893ZM23.4339 22.6893C22.3863 22.6893 21.5341 21.8105 21.5341 20.7302C21.5341 19.6498 22.3863 18.771 23.4339 18.771C24.4814 18.771 25.3337 19.6498 25.3337 20.7302C25.3337 21.8105 24.4814 22.6893 23.4339 22.6893ZM27.2042 16.9023H26.7074C26.4334 16.9023 26.2105 16.6724 26.2105 16.3898V15.8774H27.2042V16.9023H27.2042Z" fill="black"/>
<path d="M8.00152 19.7969C7.5019 19.7969 7.09546 20.216 7.09546 20.7313C7.09546 21.2465 7.5019 21.6656 8.00152 21.6656C8.50115 21.6656 8.90758 21.2465 8.90758 20.7313C8.90758 20.216 8.50115 19.7969 8.00152 19.7969Z" fill="black"/>
<path d="M23.4341 19.7969C22.9345 19.7969 22.5281 20.216 22.5281 20.7313C22.5281 21.2465 22.9345 21.6656 23.4341 21.6656C23.9338 21.6656 24.3402 21.2465 24.3402 20.7313C24.3402 20.216 23.9338 19.7969 23.4341 19.7969Z" fill="black"/>
<path d="M18.2901 17.8672H11.7431C11.501 17.8672 11.3047 18.0696 11.3047 18.3193C11.3047 18.569 11.501 18.7714 11.7431 18.7714H18.2901C18.5322 18.7714 18.7285 18.569 18.7285 18.3193C18.7285 18.0696 18.5322 17.8672 18.2901 17.8672Z" fill="black"/>
<path d="M7.06673 15.9375H1.45503C1.21293 15.9375 1.0166 16.1399 1.0166 16.3896C1.0166 16.6394 1.21287 16.8418 1.45503 16.8418H7.06673C7.30883 16.8418 7.50516 16.6394 7.50516 16.3896C7.50516 16.1399 7.30883 15.9375 7.06673 15.9375Z" fill="black"/>
<path d="M15.3259 9.80035C15.1547 9.62383 14.8771 9.62383 14.7059 9.80041L10.8071 13.821L8.77893 11.7294C8.6077 11.5528 8.33011 11.5528 8.15894 11.7294C7.98771 11.906 7.98771 12.1922 8.15894 12.3688L10.4972 14.78C10.5827 14.8684 10.695 14.9125 10.8071 14.9125C10.9193 14.9125 11.0316 14.8684 11.1171 14.78L15.3258 10.4398C15.4971 10.2631 15.4971 9.97693 15.3259 9.80035Z" fill="black"/>
</g>
<defs>
<clipPath id="clip0">
<rect width="28" height="28.875" fill="white" transform="translate(0.0810547 0.0234375)"/>
</clipPath>
</defs>
</svg>
