<svg width="28" height="26" viewBox="0 0 28 26" fill="none" xmlns="http://www.w3.org/2000/svg">
<path d="M24.9505 3.14117C22.0957 0.16082 17.4491 0.16082 14.5934 3.14049L13.9997 3.75924L13.4065 3.14078C10.5505 0.160707 5.9045 0.161045 3.04851 3.14078C1.64623 4.60406 0.874023 6.54497 0.874023 8.60541C0.874023 10.6665 1.64623 12.6071 3.04872 14.071L13.3656 24.8166C13.543 25.0019 13.7715 25.0941 13.9996 25.0941C14.2277 25.0941 14.4559 25.0015 14.6336 24.8163L24.9505 14.071C26.3527 12.6074 27.1252 10.6666 27.1252 8.60574C27.1252 6.54497 26.3527 4.6044 24.9505 3.14117ZM23.6812 12.6057L13.9996 22.6901L4.31831 12.6061C3.28513 11.5282 2.71622 10.1074 2.71622 8.60574C2.71622 7.10409 3.28513 5.68328 4.31831 4.60541C5.39599 3.48036 6.8114 2.91819 8.22712 2.91819C9.64314 2.91819 11.0592 3.48103 12.1368 4.60609L13.365 5.88578C13.7205 6.25663 14.2784 6.25663 14.6339 5.88578L15.8624 4.60541C18.018 2.35564 21.5252 2.35564 23.6809 4.60541C24.7138 5.68333 25.283 7.10409 25.283 8.60574C25.283 10.1074 24.7138 11.5279 23.6812 12.6057Z" fill="black"/>
</svg>
