<svg width="25" height="25" viewBox="0 0 25 25" fill="none" xmlns="http://www.w3.org/2000/svg">
<g clip-path="url(#clip0)">
<path d="M24.1363 4.48903C24.0364 4.38905 23.9363 4.28902 23.7364 4.28902H4.73633L4.23631 1.68905C4.23631 1.48903 3.93631 1.28906 3.7363 1.28906H0.736297C0.436344 1.28902 0.236328 1.48903 0.236328 1.78903C0.236328 2.08903 0.436344 2.28905 0.736344 2.28905H3.33636L5.73636 14.4891C6.03636 16.089 7.53636 17.289 9.13634 17.289H20.6363C20.9363 17.289 21.1363 17.089 21.1363 16.789C21.1363 16.489 20.9363 16.289 20.6363 16.289H9.23633C8.43631 16.289 7.63634 15.889 7.23631 15.189L21.8363 13.189C22.0363 13.189 22.2363 12.989 22.2363 12.789L24.2363 4.78903C24.2363 4.78903 24.2363 4.58902 24.1363 4.48903ZM21.3363 12.289L6.7363 14.189L4.9363 5.18902H23.0363L21.3363 12.289Z" fill="black"/>
<path d="M8.73631 18.2891C7.33634 18.2891 6.23633 19.3891 6.23633 20.789C6.23633 22.1891 7.33634 23.289 8.73631 23.289C10.1363 23.289 11.2363 22.189 11.2363 20.789C11.2363 19.3891 10.1363 18.2891 8.73631 18.2891ZM8.73631 22.289C7.9363 22.289 7.23631 21.589 7.23631 20.789C7.23631 19.9891 7.9363 19.289 8.73631 19.289C9.53633 19.289 10.2363 19.9891 10.2363 20.789C10.2363 21.589 9.53633 22.289 8.73631 22.289Z" fill="black"/>
<path d="M18.7363 18.2891C17.3363 18.2891 16.2363 19.3891 16.2363 20.789C16.2363 22.1891 17.3363 23.289 18.7363 23.289C20.1363 23.289 21.2363 22.189 21.2363 20.789C21.2363 19.3891 20.1363 18.2891 18.7363 18.2891ZM18.7363 22.289C17.9363 22.289 17.2363 21.589 17.2363 20.789C17.2363 19.9891 17.9363 19.289 18.7363 19.289C19.5363 19.289 20.2363 19.9891 20.2363 20.789C20.2363 21.589 19.5363 22.289 18.7363 22.289Z" fill="black"/>
</g>
<defs>
<clipPath id="clip0">
<rect width="24" height="24" fill="white" transform="translate(0.236328 0.289062)"/>
</clipPath>
</defs>
</svg>
