<svg width="29" height="29" viewBox="0 0 29 29" fill="none" xmlns="http://www.w3.org/2000/svg">
<g clip-path="url(#clip0)">
<path d="M27.7978 6.99302L16.8928 1.00495C16.729 0.915016 16.5303 0.915016 16.3664 1.00495L12.2561 3.26188C12.1694 3.28474 12.0884 3.32832 12.0213 3.39091L5.46162 6.99302C5.28666 7.08894 5.17792 7.27265 5.17792 7.47239V14.7146C4.07136 15.0607 3.05729 15.671 2.21412 16.5144C0.0163618 18.712 -0.543971 22.0637 0.819798 24.8547C0.952245 25.126 1.27973 25.2386 1.55103 25.1059C1.82255 24.9733 1.93491 24.6458 1.80246 24.3745C0.643773 22.003 1.11994 19.1552 2.98743 17.2877C4.15531 16.1199 5.70792 15.4766 7.35944 15.4766C9.01096 15.4766 10.5636 16.1199 11.7315 17.2877C12.8991 18.4554 13.5423 20.008 13.5423 21.6595C13.5423 23.3111 12.8991 24.8637 11.7312 26.0315C9.86375 27.899 7.01594 28.3752 4.64451 27.2165C4.37321 27.0838 4.04572 27.1964 3.91327 27.4677C3.78061 27.7392 3.89298 28.0667 4.1645 28.1992C5.18113 28.6961 6.27189 28.9375 7.35474 28.9375C9.24381 28.9372 11.1077 28.202 12.5048 26.8049C13.1454 26.1642 13.6517 25.4251 14.01 24.6216L16.3664 25.9155C16.4485 25.9606 16.539 25.983 16.6296 25.983C16.7202 25.983 16.811 25.9606 16.8928 25.9155L27.7978 19.9277C27.9728 19.8316 28.0815 19.6478 28.0815 19.4483V15.6477C28.0815 15.3457 27.8367 15.1009 27.5346 15.1009C27.2326 15.1009 26.9878 15.3457 26.9878 15.6477V19.1247L17.1782 24.5112V13.783L20.4157 12.0053V14.8234C20.4157 15.0169 20.5178 15.1959 20.6842 15.2942C20.7701 15.3448 20.8662 15.3703 20.9625 15.3703C21.0531 15.3703 21.1439 15.3478 21.2261 15.3025L23.563 14.0163C23.7377 13.9202 23.846 13.7367 23.846 13.5374V10.1215L26.9878 8.39652V11.273C26.9878 11.575 27.2326 11.8198 27.5346 11.8198C27.8367 11.8198 28.0815 11.575 28.0815 11.273V7.47239C28.0815 7.27287 27.9728 7.08894 27.7978 6.99302ZM16.6296 2.1081L26.3984 7.47239L23.3169 9.1645L13.5481 3.80021L16.6296 2.1081ZM16.6296 12.8365L6.86085 7.47239L10.0554 5.71812L19.8244 11.0822L16.6296 12.8365ZM20.9604 10.4584L11.1916 5.09434L12.4118 4.4242L22.1808 9.78828L20.9604 10.4584ZM12.5048 16.5144C11.1303 15.14 9.30299 14.3831 7.35944 14.3831C6.9918 14.3831 6.62864 14.4102 6.27167 14.4634V8.39652L16.0847 13.785V24.5131L14.3814 23.5779C14.5491 22.9605 14.6359 22.3166 14.6359 21.6595C14.6359 19.716 13.879 17.8887 12.5048 16.5144ZM22.7525 13.2142L21.5094 13.8984V11.4048L22.7525 10.7222V13.2142Z" fill="black"/>
<path d="M27.5344 12.9102C27.3907 12.9102 27.2495 12.9687 27.1478 13.0704C27.0461 13.1721 26.9875 13.313 26.9875 13.457C26.9875 13.6008 27.0461 13.7418 27.1478 13.8435C27.2495 13.9454 27.3907 14.0037 27.5344 14.0037C27.6782 14.0037 27.8194 13.9454 27.9211 13.8435C28.0228 13.7418 28.0813 13.6008 28.0813 13.457C28.0813 13.313 28.0228 13.1721 27.9211 13.0704C27.8194 12.9687 27.6782 12.9102 27.5344 12.9102Z" fill="black"/>
<path d="M5.5201 22.2069C5.66003 22.2069 5.80016 22.1535 5.90676 22.0469C6.12039 21.8332 6.12039 21.487 5.90676 21.2733L5.52801 20.8944H8.76013C9.54412 20.8944 10.182 21.5323 10.182 22.3162C10.182 23.1002 9.54412 23.7381 8.76013 23.7381H6.845C6.54293 23.7381 6.29812 23.9829 6.29812 24.285C6.29812 24.5869 6.54293 24.8317 6.845 24.8317H8.76013C10.1472 24.8317 11.2758 23.7033 11.2758 22.3162C11.2758 20.9292 10.1472 19.8008 8.76013 19.8008H5.52801L5.90676 19.4219C6.12039 19.2082 6.12039 18.862 5.90676 18.6483C5.69335 18.4349 5.34707 18.4349 5.13345 18.6483L3.82095 19.9608C3.60754 20.1745 3.60754 20.5207 3.82095 20.7344L5.13345 22.0467C5.24026 22.1535 5.38018 22.2069 5.5201 22.2069Z" fill="black"/>
<path d="M2.60019 26.9658C2.44468 26.9658 2.29023 26.8996 2.18235 26.7712L2.18128 26.7699C1.98688 26.5388 2.01679 26.194 2.24793 25.9996C2.47907 25.805 2.82407 25.8349 3.01847 26.066C3.21265 26.2974 3.18339 26.6428 2.95225 26.8372C2.84949 26.9235 2.72452 26.9658 2.60019 26.9658Z" fill="black"/>
</g>
<defs>
<clipPath id="clip0">
<rect width="28" height="28" fill="white" transform="translate(0.0810547 0.9375)"/>
</clipPath>
</defs>
</svg>
