<svg width="21" height="21" viewBox="0 0 21 21" fill="none" xmlns="http://www.w3.org/2000/svg">
<path d="M20.0523 19.4596L14.2424 13.6497C15.3444 12.2893 16.0077 10.5597 16.0077 8.67669C16.0077 4.31145 12.4562 0.759995 8.09098 0.759995C3.72573 0.759995 0.174316 4.31145 0.174316 8.67669C0.174316 13.0419 3.72577 16.5934 8.09102 16.5934C9.97407 16.5934 11.7036 15.93 13.064 14.8281L18.8739 20.638C19.0367 20.8007 19.3004 20.8007 19.4632 20.638L20.0523 20.0488C20.215 19.8861 20.215 19.6223 20.0523 19.4596ZM8.09102 14.9267C4.64456 14.9267 1.841 12.1231 1.841 8.67669C1.841 5.23024 4.64456 2.42668 8.09102 2.42668C11.5375 2.42668 14.341 5.23024 14.341 8.67669C14.341 12.1231 11.5375 14.9267 8.09102 14.9267Z" fill="#222222"/>
</svg>
