<svg width="26" height="26" viewBox="0 0 26 26" fill="none" xmlns="http://www.w3.org/2000/svg">
<path d="M18.1528 15.2788C17.8867 15.1421 16.561 14.4927 16.3145 14.4048C16.0679 14.312 15.8872 14.2681 15.709 14.5415C15.5283 14.8125 15.0156 15.4155 14.8545 15.5986C14.6982 15.7793 14.5395 15.8013 14.2734 15.667C12.6914 14.876 11.6538 14.2559 10.6113 12.4663C10.3354 11.9902 10.8872 12.0244 11.4023 10.9966C11.4902 10.8159 11.4463 10.6621 11.3779 10.5254C11.3096 10.3887 10.7725 9.06543 10.5479 8.52588C10.3306 8.00098 10.106 8.07422 9.94238 8.06445C9.78613 8.05469 9.60791 8.05469 9.42725 8.05469C9.24658 8.05469 8.95605 8.12305 8.70947 8.38916C8.46289 8.66016 7.76709 9.31201 7.76709 10.6353C7.76709 11.9585 8.73145 13.2402 8.86328 13.4209C9 13.6016 10.7603 16.3164 13.4629 17.4858C15.1719 18.2231 15.8408 18.2866 16.6953 18.1597C17.2153 18.0815 18.2871 17.5103 18.5093 16.8779C18.7314 16.248 18.7314 15.7085 18.6655 15.5962C18.5996 15.4766 18.4189 15.4082 18.1528 15.2788Z" fill="#5CC84D"/>
<path d="M23.3214 8.89453C22.7697 7.5835 21.9787 6.40674 20.9704 5.396C19.9621 4.3877 18.7853 3.59424 17.4718 3.04492C16.129 2.48096 14.7033 2.19531 13.2335 2.19531H13.1847C11.7052 2.20264 10.2721 2.49561 8.92445 3.07178C7.62319 3.62842 6.45619 4.41943 5.45766 5.42773C4.45912 6.43604 3.67543 7.60791 3.13344 8.91406C2.57192 10.2666 2.28871 11.7046 2.29604 13.1841C2.30336 14.8784 2.70863 16.5605 3.46791 18.0645V21.7754C3.46791 22.3955 3.97084 22.8984 4.59096 22.8984H8.30434C9.80824 23.6577 11.4904 24.063 13.1847 24.0703H13.236C14.6984 24.0703 16.1168 23.7871 17.4523 23.2329C18.7584 22.6885 19.9328 21.9072 20.9386 20.9087C21.9469 19.9102 22.7404 18.7432 23.2946 17.4419C23.8707 16.0942 24.1637 14.6611 24.171 13.1816C24.1784 11.6948 23.8903 10.252 23.3214 8.89453ZM19.6325 19.5879C17.921 21.2822 15.6505 22.2148 13.2335 22.2148H13.192C11.7199 22.2075 10.2575 21.8413 8.96596 21.1528L8.76088 21.043H5.32338V17.6055L5.21352 17.4004C4.52504 16.1089 4.15883 14.6465 4.15151 13.1743C4.14174 10.7402 5.07192 8.45508 6.77846 6.73389C8.48256 5.0127 10.7604 4.06055 13.1945 4.05078H13.236C14.4567 4.05078 15.6408 4.2876 16.7565 4.75635C17.8454 5.21289 18.8219 5.86963 19.6618 6.70947C20.4992 7.54688 21.1583 8.52588 21.6149 9.61475C22.0885 10.7427 22.3253 11.939 22.3204 13.1743C22.3058 15.606 21.3512 17.8838 19.6325 19.5879Z" fill="#5CC84D"/>
</svg>
